<svg width="99" height="99" viewBox="0 0 99 99" fill="none" xmlns="http://www.w3.org/2000/svg">
<path d="M5.85459 30.9966C3.51416 36.7636 2.34395 43.0112 2.34395 49.4991C2.34395 55.9869 3.28012 62.2345 5.85459 68.0015C8.19501 73.7685 11.4716 78.8146 15.6844 82.8995C19.6631 86.9845 24.812 90.3486 30.4291 92.7515C36.2801 95.1544 42.5993 96.3559 49.3865 96.3559C56.1737 96.3559 62.4929 95.1544 68.3439 92.7515C74.195 90.3486 79.1099 86.9845 83.3227 82.8995C87.5354 78.8146 90.812 73.7685 93.1525 68.0015C95.4929 62.2345 96.6631 55.9869 96.6631 49.4991C96.6631 43.0112 95.7269 36.7636 93.1525 30.9966C90.812 25.2296 87.5354 20.1835 83.3227 16.0986C79.1099 12.0136 73.961 8.64955 68.3439 6.24664C62.7269 3.60343 56.1737 2.40198 49.3865 2.40198C42.5993 2.40198 36.2801 3.60343 30.4291 6.00635C24.578 8.40926 19.8971 11.7733 15.6844 15.8583C11.4716 20.1835 8.19501 25.2296 5.85459 30.9966Z" fill="#F3BA2F"/>
<path d="M49.383 99C41.8936 99 35.3404 97.7985 29.4894 95.1553C23.4042 92.5121 18.0213 88.9078 14.0426 84.5825C9.59574 80.2573 6.31914 75.2112 3.74468 68.9636C1.40425 62.9563 0 56.7087 0 49.5C0 42.2913 1.17021 36.0437 3.74468 30.0364C6.31914 23.7888 9.82979 18.5024 14.0426 14.1772C18.7234 9.61165 23.6383 6.24757 29.4894 3.84466C35.5745 1.20146 42.1277 0 49.383 0C56.8723 0 63.4255 1.20146 69.2766 3.84466C75.3617 6.48786 80.7447 9.85194 84.9574 14.1772C89.4043 18.5024 92.6808 23.5485 95.2553 30.0364C97.5957 36.0437 99 42.2913 99 49.5C99 56.7087 97.8298 62.9563 95.2553 68.9636C92.6808 75.2112 89.1702 80.4976 84.9574 84.8228C80.5106 89.1481 75.1276 92.7524 69.2766 95.1553C63.4255 97.7985 56.8723 99 49.383 99ZM49.383 4.80583C42.5957 4.80583 36.7447 6.00728 31.3617 8.1699C25.9787 10.3325 21.5319 13.4563 17.3192 17.5413C13.3404 21.3859 10.2979 25.9515 7.95745 31.7184C5.85107 37.0049 4.68085 42.7718 4.68085 49.2597C4.68085 55.7476 5.85107 61.5146 7.95745 66.801C10.2979 72.568 13.3404 77.1335 17.3192 80.9782C21.0638 84.8228 25.7447 87.9466 31.3617 90.3495C36.7447 92.7524 42.5957 93.7136 49.383 93.7136C56.1702 93.7136 62.0213 92.5121 67.4043 90.3495C73.0213 87.9466 77.7021 84.8228 81.6808 80.9782C85.6596 77.1335 88.7021 72.568 91.0425 66.801C93.1489 61.5146 94.3191 55.7476 94.3191 49.2597C94.3191 42.7718 93.1489 37.0049 91.0425 31.7184C88.7021 25.9515 85.6596 21.3859 81.6808 17.5413C77.7021 13.6966 72.7872 10.3325 67.4043 8.1699C62.2553 6.00728 56.4042 4.80583 49.383 4.80583Z" fill="black"/>
<path d="M36.7432 41.0913C40.2538 41.0913 43.0623 37.2466 43.0623 32.6811C43.0623 28.1155 40.2538 24.2709 36.7432 24.2709C33.2325 24.2709 30.424 28.1155 30.424 32.6811C30.424 37.2466 33.2325 41.0913 36.7432 41.0913Z" fill="black"/>
<path d="M61.7856 41.0907C65.2962 41.0907 68.1047 37.246 68.1047 32.6805C68.1047 28.1149 65.2962 24.2703 61.7856 24.2703C58.2749 24.2703 55.4664 28.1149 55.4664 32.6805C55.4664 37.246 58.2749 41.0907 61.7856 41.0907Z" fill="black"/>
<path d="M50.085 84.3429C59.6807 84.3429 67.4041 75.9327 67.4041 65.6001C67.4041 55.2676 59.6807 46.8574 50.085 46.8574C40.4892 46.8574 32.7658 55.2676 32.7658 65.6001C32.7658 75.9327 40.4892 84.3429 50.085 84.3429Z" fill="black"/>
</svg>
