<svg width="64" height="64" viewBox="0 0 64 64" fill="none" xmlns="http://www.w3.org/2000/svg">
<path d="M0 0H64V64H0V0Z" fill="#DA5CFE"/>
<path d="M25.9478 19.0511C26.8717 17.9108 28.1301 16.9505 29.723 16.1703C31.3159 15.3901 33.1159 15 35.123 15C37.4168 15 39.5035 15.5401 41.3832 16.6204C43.2947 17.6707 44.792 19.1561 45.8752 21.0766C46.9584 22.9972 47.5 25.2028 47.5 27.6934C47.5 30.1841 46.9584 32.4197 45.8752 34.4002C44.792 36.3508 43.2947 37.8812 41.3832 38.9915C39.5035 40.0718 37.4168 40.6119 35.123 40.6119C33.1159 40.6119 31.3319 40.2368 29.7708 39.4866C28.2097 38.7064 26.9354 37.7461 25.9478 36.6058V50H20.5V15H25.9478V19.0511ZM41.9566 27.6934C41.9566 25.983 41.5743 24.5126 40.8097 23.2822C40.077 22.0219 39.0894 21.0766 37.8469 20.4465C36.6363 19.7863 35.3301 19.4562 33.9283 19.4562C32.5584 19.4562 31.2522 19.7863 30.0097 20.4465C28.7991 21.1066 27.8115 22.0669 27.0469 23.3273C26.3142 24.5876 25.9478 26.073 25.9478 27.7835C25.9478 29.4939 26.3142 30.9943 27.0469 32.2847C27.8115 33.545 28.7991 34.5053 30.0097 35.1654C31.2522 35.8256 32.5584 36.1557 33.9283 36.1557C35.3301 36.1557 36.6363 35.8256 37.8469 35.1654C39.0894 34.4753 40.077 33.485 40.8097 32.1946C41.5743 30.9043 41.9566 29.4039 41.9566 27.6934Z" fill="black"/>
</svg>
