<svg id="Layer_1" data-name="Layer 1" xmlns="http://www.w3.org/2000/svg" viewBox="0 0 512 512"><defs><style>.cls-1{fill:#f95f0c;}</style></defs><path class="cls-1" d="M369.27,43.45C323.14,6.51,273.84-6.41,222.75,5,55.12,42.61,8.88,285.81,8.44,288.22c-.3,1.51-29,151.1,108.09,201.15A362.14,362.14,0,0,0,241.25,511c84.42,0,152.27-27.3,176.92-38.73,36.57-16.95,88.08-74.9,88.09-150.65C506.27,251,458.67,115,369.27,43.45ZM423,235.06s15.73,120-53,183.53C273.6,507.64,43.79,379.48,73.88,253.9c21.75-90.78,155.38-141.43,155.38-141.43S406.63,37.48,423,235.06Zm17.34-88.68a288.65,288.65,0,0,0-26.6-51.6c53.94,69,88.65,164.61,88.64,226.84,0,35.77-11.72,67.46-27.84,92.53C511.72,326.23,440.38,146.38,440.38,146.38ZM223.59,8.78a159.4,159.4,0,0,1,34.86-3.93Q293,4.85,326,20.54a128.77,128.77,0,0,0-80.13-2.62C157.56,43.07,67.07,137,27.37,232.74,51.69,158.6,108.8,34.51,223.59,8.78Zm-105.74,477C58.32,464,30.78,423.06,18.58,384.09c44,86.42,223.36,130.63,345.61,104.39C306.15,506.05,214.28,521,117.85,485.77Z"/></svg>