<svg xmlns="http://www.w3.org/2000/svg" width="100" height="100" viewBox="0 0 100 100">
  <g id="logo_vita" transform="translate(-3658 -6038)">
    <g id="group_2496" data-name="group 2496">
      <rect id="rect_563" data-name="rect 563" width="100" height="100" transform="translate(3658 6038)" fill="none"/>
      <g id="group_2495" data-name="group 2495" transform="translate(3538.437 5938.362)">
        <path id="path_3808" data-name="path 3808" d="M211.138,154.621c-.119-.371-.253-.779-.4-1.229-5.919-17.81-15.72-35.077-18.776-37.187s-7.107,1.632-11.741,6.271l0,0-.016.016q-.833.833-1.586,1.714c-5.155,5.779-10.5,12.147-17.85,15.234-21.449,9.006-34.455-38.929-36.983-20.091-.876,6.523,3.531,16.48,6.8,26.167.12.371.253.779.4,1.229,5.709,17.179,9.16,28.435,13.511,35.446s15.418-.39,20.016-6.3c4.617-4.706,12.11-17.245,20.894-18.591,18.167-2.784,21.454,26.849,26.228,27.306C219.824,185.394,214.408,164.309,211.138,154.621Z" transform="translate(-0.025 -0.068)" fill="#b46717"/>
        <path id="path_3809" data-name="path 3809" d="M212.89,157.852c-4.673-13.638-14.1-37.9-18.9-41.294-2.8-1.979-8.189,17.7-12.822,21.123l0,0-.015.012q-.833.615-1.586,1.265c-5.155,4.265-10.5,8.966-17.85,11.245-21.45,6.647-26.69-32.887-29.218-18.983-.876,4.816.96,13.807,4.23,20.958.119.274,2.228,3.537,2.377,3.87,5.709,12.679,3.241,20.452,7.714,27.126,2.549,3.8,10.374-.054,14.972-4.421,4.617-3.474,15.739-20.073,24.524-21.066,18.167-2.055,23.232,22.153,26.27,25.85C217.976,190.1,217.206,170.446,212.89,157.852Z" transform="translate(-2.057 -0.42)" fill="#fff"/>
        <path id="path_3810" data-name="path 3810" d="M204.464,117.8s23.245,44.006,20.716,62.843-12.175-25.859-30.343-23.075c-8.785,1.346-16.766,13.307-21.382,18.013C168.062,181.08,204.464,117.8,204.464,117.8Z" transform="translate(-11.645 -0.746)" fill="#fbc139"/>
        <path id="path_3811" data-name="path 3811" d="M206.939,117.8s9.765,18.046,15.684,35.856c4.479,13.485-4.867-9.58-16.423-7.329-9.854,1.921-19.576,12.554-22.566,15.6C180.143,165.493,206.939,117.8,206.939,117.8Z" transform="translate(-14.102 -0.747)" fill="#f9ae36"/>
        <path id="path_3812" data-name="path 3812" d="M144.472,182.128s-23.244-44.006-20.716-62.843,12.175,25.859,30.343,23.075C162.884,141.015,173.384,126.7,178,122,183.393,116.5,144.472,182.128,144.472,182.128Z" transform="translate(0 0)" fill="#fbc139"/>
        <path id="path_3813" data-name="path 3813" d="M145.709,188.9s-9.766-18.045-15.684-35.856c-4.48-13.484,4.868,9.581,16.422,7.329,9.854-1.92,19.966-13.8,22.955-16.851C172.895,139.959,145.709,188.9,145.709,188.9Z" transform="translate(-1.255 -6.772)" fill="#f9ae36"/>
        <path id="path_3814" data-name="path 3814" d="M151.89,183.7h0c3.9,2.695,12.969-3.511,17.3-9.945,8.158-12.119,12.112-22.884,19.313-35.564s13.741-19.1,9.837-21.79h0l-.023-.015h0c-3.9-2.695-12.969,3.511-17.3,9.945C172.859,138.445,168.9,149.21,161.7,161.89s-13.741,19.1-9.837,21.79h0" transform="translate(-6.404 -0.259)" fill="#f09a24"/>
        <g id="group_2494" data-name="group 2494" transform="translate(181.776 118.579)">
          <path id="path_3815" data-name="path 3815" d="M200.778,123.224c.008-.028.017-.055.026-.083a.612.612,0,0,1-.026.083l.026-.083a2.822,2.822,0,0,1,2.242-1.9.523.523,0,1,0-.162-1.033,3.866,3.866,0,0,0-3.119,2.76.527.527,0,0,0,1.04.173" transform="translate(-199.757 -119.891)" fill="#fff"/>
          <path id="path_3816" data-name="path 3816" d="M205.3,120.58a.475.475,0,1,0,.051-.669A.474.474,0,0,0,205.3,120.58Z" transform="translate(-201.039 -119.796)" fill="#fff"/>
        </g>
      </g>
    </g>
  </g>
</svg>
