<svg width="13" height="13" viewBox="0 0 13 13" fill="none" xmlns="http://www.w3.org/2000/svg">
<path fill-rule="evenodd" clip-rule="evenodd" d="M2 13H11C11 12.4696 11.2106 11.9609 11.5857 11.5858C11.9608 11.2107 12.4696 11 13 11V2C12.7374 2.00058 12.4774 1.9491 12.2349 1.84851C11.9923 1.74793 11.772 1.60023 11.5869 1.414C11.4005 1.22881 11.2526 1.00849 11.1519 0.765778C11.0511 0.52307 10.9995 0.26279 11 0H2C2 0.530433 1.78938 1.03914 1.41431 1.41422C1.03923 1.78929 0.530433 2 0 2V11C0.26256 10.9995 0.522606 11.051 0.765137 11.1516C1.00767 11.2522 1.22796 11.3998 1.41309 11.586C1.59958 11.7712 1.74739 11.9915 1.84814 12.2342C1.9489 12.4769 2.00053 12.7372 2 13ZM2.78784 11.9999H10.2124C10.396 11.0974 11.0974 10.3956 12 10.2123V2.78757C11.0969 2.60416 10.3958 1.9028 10.2124 1H2.78784C2.60474 1.90311 1.90332 2.6044 1.00024 2.78763V10.2122C1.90356 10.3955 2.60474 11.0969 2.78784 11.9999Z" fill="#0ED5A0"/>
<path d="M11.1182 5.16268C11.0235 4.95697 10.3681 4.8484 10.0523 4.81982C10.0128 5.67697 9.95757 7.39125 10.0523 7.39125C10.1707 7.39125 11.1182 7.04839 11.2367 6.79125C11.3551 6.53411 11.2367 5.41982 11.1182 5.16268Z" fill="#0ED5A0"/>
<path d="M1.88178 5.16268C1.97653 4.95697 2.63186 4.8484 2.94769 4.81982C2.98716 5.67697 3.04243 7.39125 2.94769 7.39125C2.82925 7.39125 1.88178 7.04839 1.76335 6.79125C1.64491 6.53411 1.76335 5.41982 1.88178 5.16268Z" fill="#0ED5A0"/>
<path fill-rule="evenodd" clip-rule="evenodd" d="M10.2694 6.52361C10.2699 6.49615 10.2702 6.46862 10.2702 6.44102C10.2702 5.71785 10.0719 5.04099 9.72675 4.46185C9.72693 4.46196 9.72711 4.46206 9.72729 4.46216C10.0721 5.04111 10.2702 5.71764 10.2702 6.44045C10.2702 6.46824 10.2699 6.49596 10.2694 6.52361ZM2.95893 4.66391C3.60284 3.41997 4.90165 2.56982 6.39903 2.56982C7.81386 2.56982 9.05142 3.32882 9.72675 4.46185C8.90912 3.98877 7.76553 3.69487 6.49991 3.69487C5.06266 3.69487 3.78278 4.07388 2.95893 4.66391ZM2.52859 6.36372C2.52809 6.38923 2.52784 6.41481 2.52784 6.44045C2.52784 6.83762 2.58766 7.22082 2.69876 7.58154C3.49697 8.28833 4.90106 8.75736 6.49991 8.75736C7.92788 8.75736 9.20051 8.38323 10.0249 7.79972C10.1743 7.40138 10.2599 6.97186 10.2694 6.52361C10.2254 8.62348 8.50944 10.3122 6.39903 10.3122C4.26103 10.3122 2.52783 8.57903 2.52783 6.44102C2.52783 6.41519 2.52808 6.38942 2.52859 6.36372ZM2.52859 6.36372C2.54048 5.75193 2.6943 5.17492 2.95847 4.66424C2.95863 4.66413 2.95878 4.66402 2.95893 4.66391C2.69455 5.17465 2.54058 5.75179 2.52859 6.36372Z" fill="#0ED5A0"/>
<circle r="0.75" transform="matrix(1 0 0 -1 7.75 5.25)" fill="#0ED5A0"/>
</svg>
